<svg xmlns="http://www.w3.org/2000/svg" viewBox="0 0 214.72 197.82"><defs><style>.cls-1{fill:#70ad97;}.cls-2{fill:#231f20;}</style></defs><title>Asset 7</title><g id="Layer_2" data-name="Layer 2"><g id="Icons"><g id="Carriage"><rect class="cls-1" x="40.72" y="3.61" width="49.67" height="191.23"/><g id="Window"><path class="cls-2" d="M86.38,71.86c10.24-1.36,22-3.32,32.26-1.52,5.08.89,8.59,3.34,9.1,8.79s.7,11.73-5.13,14.22c-9,3.86-22.52,4-31.43-.41C82,88.45,80.26,77.11,88.5,70.66c3.79-3-1.55-8.25-5.31-5.31a20.12,20.12,0,0,0,.13,31.47c10.9,8.48,29.92,8.67,42.21,3.43,6.55-2.79,9.47-7.94,9.81-14.9.3-6.28-.11-13.25-5-17.78-4.26-3.94-10.46-4.93-16-5.12-9.27-.33-18.74.69-27.91,1.91-4.72.63-4.78,8.13,0,7.5Z"/></g><g id="Carriage-2" data-name="Carriage"><path class="cls-2" d="M51.55,95.38A64.2,64.2,0,0,1,58.06,40.3C62.25,33.78,70.51,27,66.89,18.4c-2.79-6.63-11.5-8.22-15.48-1.65-4.48,7.39,2,15.33,8.56,18.5,7.54,3.65,16.25,3,24.13.88S101.15,30.86,107,25c4.88-4.95,7-12.86,3.42-19.19S99-1.66,93.19,2.37c-6.55,4.57-7.55,13-3.91,19.76,4.32,8,13.11,11.42,21.55,13.19,10,2.1,20.69,4.88,30.92,5.46,7.5.42,16.55-3.77,16.4-12.44C158,20.61,149,16,142.38,19.45c-7.54,3.95-7.94,12.85-4.38,19.69,1.95,3.74,4.8,6.94,7,10.53A56.17,56.17,0,0,1,151.47,65c6.08,23.29-1.18,47.15-10.11,68.67-2.38,5.74-4.85,11.47-7.46,17.11-2.19,4.73-4.61,9.68-8.6,13.16-4.81,4.19-11.27,5-17.42,5.08-1.51,0-6.7.61-7.81-.29-1.32-1.06,2.18-8.32,2.81-9.69,2-4.35-4.44-8.17-6.47-3.79-2.21,4.76-7,13.85-2.59,18.58,3.88,4.14,13.09,2.93,18.15,2.53,6.59-.51,12.92-2.3,18.05-6.63s8.27-10.52,11-16.57c12.52-27.77,25.58-58.4,17.88-89.38a62.77,62.77,0,0,0-8.27-19.27c-1.87-2.86-4.12-5.49-5.76-8.49-1.73-3.16-3.06-10.27,2.55-10.18,2.91,0,3.85,2.95,2.18,5.15-1.15,1.53-3.48,2.15-5.27,2.31-4.29.38-8.82-1-13-1.76-7.69-1.42-15.64-2.43-23.17-4.59-6.12-1.77-16.92-8-12.81-16,1.4-2.74,5.33-4.86,7.83-2.36,2.16,2.15,1.8,6.06.49,8.54-3.17,6-11.86,8.76-17.9,10.73-6.56,2.14-14.25,3.87-21,1.38a14.66,14.66,0,0,1-4.94-3c-1.26-1.2-4.09-5.94-.94-5.4,4.59.79-2.64,9.3-3.71,10.69A70,70,0,0,0,44.48,51.31a71.27,71.27,0,0,0-.16,46.07c1.55,4.54,8.79,2.59,7.23-2Z"/><path class="cls-2" d="M191.1,124a9.57,9.57,0,0,1,6.13,1.88v-6.48a12.84,12.84,0,0,1-8.85,2.59c-3.92-.28-9.1-2.87-5.47-7.2,1.72-2.05,4.64-3,6.44-5.12a10.14,10.14,0,0,0,2.67-6.9c-.27-5.12-4.69-7.51-9.36-7.72-7.66-.34-15.6.69-23.26,1.08-4.8.24-4.83,7.74,0,7.5l13.53-.68c2-.11,11.09-1.69,11.32,1,.15,1.78-5.37,4.33-6.64,5.51a10.81,10.81,0,0,0-3.72,7.18c-.84,13.88,18.74,15.36,27.13,9.22a3.82,3.82,0,0,0,0-6.48,16.29,16.29,0,0,0-9.92-2.9c-4.81.1-4.83,7.6,0,7.5Z"/><path class="cls-2" d="M171.92,117.16a31.59,31.59,0,0,0-24.11,14.08c-2.7,4,3.79,7.77,6.48,3.78a23.54,23.54,0,0,1,17.63-10.36c4.78-.39,4.82-7.89,0-7.5Z"/><path class="cls-2" d="M91.33,107.87c-26.2-22.55-66-20.1-88.61,6.33-3.12,3.65,2.16,9,5.3,5.31,19.84-23.18,54.7-26.4,78-6.33,3.64,3.13,9-2.15,5.31-5.31Z"/><path class="cls-2" d="M115.86,124.67a64.1,64.1,0,0,0,15-.65c2-.32,3.09-2.82,2.62-4.62-.56-2.14-2.62-2.92-4.61-2.61a56.33,56.33,0,0,1-13,.38c-4.81-.38-4.79,7.12,0,7.5Z"/></g><g id="Wheels"><path class="cls-2" d="M24.44,178.64l15.91-16.57c3.34-3.49-2-8.8-5.31-5.31l-15.9,16.58c-3.34,3.48,1.95,8.8,5.3,5.3Z"/><path class="cls-2" d="M74.22,173.69q-10.57-9.06-21.86-17.22c-3.92-2.83-7.67,3.67-3.79,6.48Q59.08,170.56,68.92,179c3.64,3.12,9-2.16,5.3-5.31Z"/><path class="cls-2" d="M18,147.12a69.13,69.13,0,0,0,15.61,7.16c4.61,1.46,6.59-5.78,2-7.23a61,61,0,0,1-13.83-6.41c-4.11-2.55-7.88,3.93-3.78,6.48Z"/><path class="cls-2" d="M57.05,153.47,78,139.1c4-2.72.2-9.22-3.79-6.48L53.27,147c-4,2.71-.21,9.22,3.78,6.47Z"/><path class="cls-2" d="M42,121v22.88c0,4.82,7.5,4.83,7.5,0V121c0-4.82-7.5-4.83-7.5,0Z"/><path class="cls-2" d="M190.66,134.58c-11.78-3.29-24.82,1-31.83,11.16-7.92,11.5-7.27,28.12,1.17,39.13a30.07,30.07,0,0,0,32.92,10.42,35.51,35.51,0,0,0,16.81-10.92c4.39-5.4,5.38-12.83,4.87-19.59-1.16-15.27-10.88-28.82-26-32.63-4.68-1.17-6.68,6.06-2,7.23,13.1,3.29,20.78,15.49,20.65,28.65-.09,8.15-3.74,13.68-10.77,17.63a25.08,25.08,0,0,1-17.89,3c-12.89-3-19.82-17.11-17.28-29.55,2.61-12.8,14.62-20.88,27.4-17.32,4.65,1.3,6.64-5.93,2-7.23Z"/><path class="cls-2" d="M181.28,148.21v8.64c0,4.82,7.5,4.83,7.5,0v-8.64c0-4.82-7.5-4.83-7.5,0Z"/><path class="cls-2" d="M192.31,168.17H200c4.83,0,4.84-7.5,0-7.5h-7.72c-4.83,0-4.84,7.5,0,7.5Z"/><path class="cls-2" d="M193.64,179.64l-3.47-9.55a3.85,3.85,0,0,0-4.61-2.62,3.78,3.78,0,0,0-2.62,4.61l3.47,9.55a3.85,3.85,0,0,0,4.61,2.62,3.77,3.77,0,0,0,2.62-4.61Z"/><path class="cls-2" d="M177.61,165.61a32.81,32.81,0,0,0-13,3c-1.85.82-2.29,3.52-1.35,5.13,1.12,1.91,3.28,2.17,5.13,1.35a23.62,23.62,0,0,1,9.26-1.95c4.82-.07,4.84-7.57,0-7.5Z"/><path class="cls-2" d="M165.2,159.89a98.3,98.3,0,0,0,9.31,5.05,3.85,3.85,0,0,0,5.13-1.35,3.79,3.79,0,0,0-1.35-5.13,95,95,0,0,1-9.3-5.05c-4.13-2.53-7.9,4-3.79,6.48Z"/><path class="cls-2" d="M42,105.64c-16.83,4.49-35.39,12-40.12,30.66-4.82,19-.67,41.18,16.56,52.3,15.91,10.26,40,13.47,55.88,1.74s20.86-33.46,16-52.11c-2.54-9.76-8-19-16.3-24.85-9.55-6.71-21.61-7.74-32.92-8.11-4.83-.16-4.82,7.34,0,7.5,8.2.27,16.79.73,24.33,4.29,7.35,3.46,12.68,9.87,15.74,17.31,6.22,15.14,4.44,34.69-7.43,46.61-12.28,12.31-31.68,11-46.46,4C20.6,181.76,14.7,177,11.36,170.28c-4-8.08-4.19-18.13-3.18-26.92,2.2-19.15,19.32-26.09,35.81-30.49,4.66-1.24,2.68-8.48-2-7.23Z"/></g></g></g></g></svg>