<svg xmlns="http://www.w3.org/2000/svg" viewBox="0 0 214.68 221.92"><defs><style>.cls-1{fill:#e58b87;}.cls-2{fill:#231f20;}</style></defs><title>Asset 3</title><g id="Layer_2" data-name="Layer 2"><g id="Icons"><g id="Castle"><circle class="cls-1" cx="147.94" cy="66.75" r="66.75"/><g id="Roof"><path class="cls-2" d="M11.22,96.6a88.18,88.18,0,0,0,23-45.24l-7.37-1c1.28,17.75,11.38,32.25,21.8,46l4.23-5.5a149.65,149.65,0,0,0-46.52-.55c-4.76.69-2.74,7.92,2,7.24a137.93,137.93,0,0,1,42.54.54c2.79.47,6.43-2.6,4.23-5.51-9.47-12.52-19.6-26-20.77-42.24-.28-3.93-6.57-5.43-7.36-1A81.31,81.31,0,0,1,5.92,91.3c-3.32,3.5,2,8.81,5.3,5.3Z"/><path class="cls-2" d="M80.67,69.07A71.54,71.54,0,0,1,114,63.53a69.25,69.25,0,0,1,16.17,3.31c5.09,1.68,9.88,3.53,15.31,3.65,3.85.09,4.92-5,1.89-7-19.88-12.68-35-33.72-36-57.81-.2-4.8-7.55-4.85-7.5,0A74.08,74.08,0,0,1,77.24,63.17c-3.7,3.1,1.63,8.38,5.31,5.3a81.33,81.33,0,0,0,28.8-62.78h-7.5c1.09,26.82,17.51,50.14,39.69,64.29l1.9-7c-5.84-.13-11.13-2.86-16.68-4.41a76.52,76.52,0,0,0-50.08,3.26c-4.39,1.84-2.46,9.1,2,7.23Z"/><path class="cls-2" d="M181.25,51A61,61,0,0,1,164.72,94c-2.8,3,.87,8.37,4.54,5.89,11.5-7.76,25.24-4.46,37.6-.8l1-7.36c-2.74-.23-6.11-4.75-7.79-6.82a42.94,42.94,0,0,1-5.56-9.27,67.49,67.49,0,0,1-5.25-21.43c-.44-4.76-7.95-4.81-7.5,0,.89,9.43,2.92,18.73,7.24,27.22,3.54,6.93,10.41,17.08,18.86,17.8,4.32.36,4.93-6.2,1-7.37-14.26-4.23-30.18-7.34-43.37,1.56L170,99.32A68.78,68.78,0,0,0,188.75,51c-.08-4.82-7.58-4.83-7.5,0Z"/></g><g id="Castle-2" data-name="Castle"><path class="cls-2" d="M145,77.23H67.69c-4.83,0-4.84,7.5,0,7.5H145c4.83,0,4.83-7.5,0-7.5Z"/><path class="cls-2" d="M140.6,83.26v8.49c0,4.82,7.5,4.83,7.5,0V83.26c0-4.82-7.5-4.83-7.5,0Z"/><path class="cls-2" d="M72.74,93.38V82.29c0-4.83-7.5-4.84-7.5,0V93.38c0,4.82,7.5,4.83,7.5,0Z"/><path class="cls-2" d="M70,98.11H82c4.83,0,4.83-7.5,0-7.5H70c-4.83,0-4.83,7.5,0,7.5Z"/><path class="cls-2" d="M130,98.11h13.38c4.82,0,4.83-7.5,0-7.5H130c-4.82,0-4.83,7.5,0,7.5Z"/><path class="cls-2" d="M124.29,95.33v7.18c0,4.83,7.5,4.84,7.5,0V95.33c0-4.82-7.5-4.83-7.5,0Z"/><path class="cls-2" d="M78.62,94.68v9.14c0,4.82,7.5,4.83,7.5,0V94.68c0-4.82-7.5-4.83-7.5,0Z"/><path class="cls-2" d="M64.75,109.52h83.51c4.83,0,4.84-7.5,0-7.5H64.75c-4.82,0-4.83,7.5,0,7.5Z"/><path class="cls-2" d="M144.19,109v27.72c0,4.83,7.5,4.84,7.5,0V109c0-4.83-7.5-4.84-7.5,0Z"/><path class="cls-2" d="M61,109v27.07c0,4.83,7.5,4.83,7.5,0V109c0-4.83-7.5-4.84-7.5,0Z"/><path class="cls-2" d="M46.81,144.1H165.88c4.82,0,4.83-7.5,0-7.5H46.81c-4.83,0-4.83,7.5,0,7.5Z"/><path class="cls-2" d="M80.25,116.86V127.3c0,4.83,7.5,4.84,7.5,0V116.86c0-4.82-7.5-4.83-7.5,0Z"/><path class="cls-2" d="M101.13,116.21V127.3c0,4.83,7.5,4.84,7.5,0V116.21c0-4.82-7.5-4.83-7.5,0Z"/><path class="cls-2" d="M123.63,116.86v9.46c0,4.83,7.5,4.84,7.5,0v-9.46c0-4.82-7.5-4.83-7.5,0Z"/><path class="cls-2" d="M60.35,155.68v12.07c0,4.83,7.5,4.84,7.5,0V155.68c0-4.82-7.5-4.83-7.5,0Z"/><path class="cls-2" d="M78.94,157.31v11.1c0,4.82,7.5,4.83,7.5,0v-11.1c0-4.82-7.5-4.83-7.5,0Z"/><path class="cls-2" d="M101.13,152.42v14.35c0,4.83,7.5,4.84,7.5,0V152.42c0-4.82-7.5-4.83-7.5,0Z"/><path class="cls-2" d="M123.31,157.64v10.77c0,4.82,7.5,4.83,7.5,0V157.64c0-4.82-7.5-4.83-7.5,0Z"/><path class="cls-2" d="M144.84,153.07v13.7c0,4.83,7.5,4.84,7.5,0v-13.7c0-4.82-7.5-4.83-7.5,0Z"/><path class="cls-2" d="M48.76,138.74c.57-3.68,5.89-3.21,6.94-7.2,1.23-4.66-.05-10.89-.17-15.69-.1-3.56-.12-7.2-4.13-8.31-5-1.39-11.71-.33-16.9-.35a3.82,3.82,0,0,0-3.75,3.75c-.09,3,.38,6.94-.48,9.88l2.62-2.62c-2.94.75-6.82.12-9.86.11l3.62,2.75a37,37,0,0,1-.28-10.87c.22-2.06-1.91-3.71-3.75-3.75q-9.45-.25-18.86.27c-4.8.27-4.83,7.77,0,7.5q9.42-.52,18.86-.27l-3.75-3.75a44,44,0,0,0,.54,12.86A3.78,3.78,0,0,0,23,125.81c3.55,0,10.62,1.53,13.51-1.34s1.6-9.89,1.71-13.53l-3.75,3.75c4.91,0,10.78-.83,15.59.23l-2.24-1.72c.8,1.3.25,5.28.3,7.16l.14,5.42c0,.72-.32,4.05.25,3.23.32-.46-3.49,1.41-4.23,2.14a9.72,9.72,0,0,0-2.78,5.59c-.74,4.73,6.49,6.76,7.23,2Z"/><path class="cls-2" d="M41.43,136.76v77c0,4.83,7.5,4.83,7.5,0v-77c0-4.82-7.5-4.83-7.5,0Z"/><path class="cls-2" d="M0,112.3v18.59c0,4.83,7.5,4.84,7.5,0V112.3c0-4.83-7.5-4.84-7.5,0Z"/><path class="cls-2" d="M15.29,215.66a330.63,330.63,0,0,0,2.55-51.39c-.25-8.25-.7-16.55-1.71-24.74C15.3,132.77,11,130,4.74,128.46c-4.69-1.12-6.69,6.11-2,7.23,4.47,1.07,5.76,2.46,6.24,7.24q.53,5.32.85,10.66.64,10.18.64,20.4a331.92,331.92,0,0,1-2.69,41.67c-.6,4.78,6.9,4.73,7.5,0Z"/><path class="cls-2" d="M158.39,211.32c-11.74-5.48-24.25-8-37.1-9.11a247.7,247.7,0,0,0-39.47-.45,77.26,77.26,0,0,0-17.21,3,52.85,52.85,0,0,0-8.41,3.44c-1.21.62-3,2.1-4.22,2.5-2,.62-4-.51-5.91-1-12.7-3.47-26,.42-38,4.73-4.51,1.62-2.56,8.87,2,7.23a100.35,100.35,0,0,1,18.83-5.28c6.93-1.05,12.62.1,19.24,1.93,5.41,1.5,8.63-2.17,13.3-4.34a58,58,0,0,1,18.71-4.59c11.83-1.15,24-.73,35.88-.06,13.23.76,26.47,2.8,38.56,8.45,4.35,2,8.16-4.43,3.79-6.47Z"/><path class="cls-2" d="M208.58,210.25a71.35,71.35,0,0,0-52.52,2.33c-4.41,1.94-.6,8.4,3.78,6.47a63.68,63.68,0,0,1,46.75-1.56c4.57,1.59,6.53-5.65,2-7.24Z"/><path class="cls-2" d="M208.34,129.6c-14.46,5.44-11,23.49-9.93,35.59,1.43,16.49,3.73,32.9,6.8,49.17.89,4.74,8.12,2.73,7.23-2-2.47-13.11-4.44-26.3-5.81-39.57q-1-9.49-1.58-19c-.34-5.57-1.28-14.48,5.29-16.95,4.47-1.69,2.53-8.94-2-7.23Z"/><path class="cls-2" d="M213,132.52V110.67c0-4.83-7.5-4.84-7.5,0v21.85c0,4.83,7.5,4.84,7.5,0Z"/><path class="cls-2" d="M208,106.92h-13.7c-4.83,0-4.84,7.5,0,7.5H208c4.82,0,4.83-7.5,0-7.5Z"/><path class="cls-2" d="M190.51,110.67v11.41c0,4.83,7.5,4.84,7.5,0V110.67c0-4.83-7.5-4.84-7.5,0Z"/><path class="cls-2" d="M193.6,118.66H179.25c-4.82,0-4.83,7.5,0,7.5H193.6c4.83,0,4.84-7.5,0-7.5Z"/><path class="cls-2" d="M182.68,122.41V110.67c0-4.83-7.5-4.84-7.5,0v11.74c0,4.83,7.5,4.83,7.5,0Z"/><path class="cls-2" d="M178.27,106.59H162c-4.82,0-4.83,7.5,0,7.5h16.31c4.83,0,4.84-7.5,0-7.5Z"/><path class="cls-2" d="M157.89,110.34v17c0,4.83,7.5,4.84,7.5,0v-17c0-4.83-7.5-4.83-7.5,0Z"/><path class="cls-2" d="M173.62,156.33a152.87,152.87,0,0,0-1.28-19.24c-.74-5.11-3.47-8.59-7.11-12.07-3.49-3.33-8.8,2-5.3,5.3,3.75,3.59,5,6.5,5.44,11.7.43,4.76.66,9.53.75,14.31s7.6,4.84,7.5,0Z"/><path class="cls-2" d="M163.94,214.25a202.93,202.93,0,0,0,6.23-28.32c1.37-9.49,1.82-19.09,3.68-28.5.94-4.72-6.29-6.74-7.23-2-1.84,9.28-2.32,18.72-3.62,28.08a200.15,200.15,0,0,1-6.3,28.74c-1.36,4.64,5.88,6.62,7.24,2Z"/><path class="cls-2" d="M181.7,136.11v9.79c0,4.82,7.5,4.83,7.5,0v-9.79c0-4.82-7.5-4.83-7.5,0Z"/><path class="cls-2" d="M31,149.81V133.18c0-4.83-7.5-4.84-7.5,0v16.63c0,4.83,7.5,4.84,7.5,0Z"/></g><g id="Gate"><path class="cls-2" d="M92.84,203.53c-2.21-9.25,4.56-18.39,14.39-17.79,10.26.63,13.45,10,12.81,18.76-.35,4.82,7.16,4.79,7.5,0,.5-6.84-.28-13-4.78-18.49a21.15,21.15,0,0,0-17-7.77c-14.16.53-23.34,13.8-20.13,27.29,1.12,4.69,8.36,2.7,7.24-2Z"/></g></g></g></g></svg>