<svg xmlns="http://www.w3.org/2000/svg" viewBox="0 0 206.66 189.95"><defs><style>.cls-1{fill:#70ad97;}.cls-2{fill:none;stroke:#231f20;stroke-miterlimit:10;stroke-width:9px;}.cls-3{fill:#231f20;}</style></defs><title>Asset 8</title><g id="Layer_2" data-name="Layer 2"><g id="Icons"><g id="Diamond"><rect class="cls-1" x="99.88" y="2.9" width="57.7" height="186.53"/><polygon class="cls-2" points="30.76 106.71 100.92 183.47 179.08 106.71 153.06 58.57 51.58 58.57 30.76 106.71"/><path class="cls-3" d="M48.44,62a274.69,274.69,0,0,0,30.79,42.95c1.4,1.6,3.65.83,4.71-.6A167,167,0,0,0,106.73,62.2l-5.49.71a156.64,156.64,0,0,0,27.53,39.68,3,3,0,0,0,4.71-.61A236.16,236.16,0,0,0,154,63.21c1.49-3.56-4.32-5.11-5.79-1.6A227.6,227.6,0,0,1,128.3,99l4.71-.61a150.77,150.77,0,0,1-26.58-38.45c-1.23-2.54-4.67-1.49-5.49.71a161.42,161.42,0,0,1-22.18,40.71l4.71-.61A266.39,266.39,0,0,1,53.62,59c-1.94-3.34-7.13-.32-5.18,3Z"/><path class="cls-3" d="M30.13,107.27a1140,1140,0,0,0,142.7,0c3.83-.24,3.86-6.24,0-6a1140,1140,0,0,1-142.7,0c-3.85-.24-3.84,5.76,0,6Z"/><path class="cls-3" d="M77,107.89a153.83,153.83,0,0,1,15.81,41.18A147.29,147.29,0,0,1,96,171c.3,4.21-.23,10.12,4.94,11.4a3.06,3.06,0,0,0,3.7-2.09c7-27.07,14.31-54.51,30-78,2.15-3.22-3-6.23-5.18-3-16,23.93-23.48,51.92-30.62,79.46l3.69-2.1c-.86-.21-1.6-15.9-1.89-17.82a155.8,155.8,0,0,0-4-19,159.77,159.77,0,0,0-14.47-34.91c-1.88-3.37-7.07-.35-5.18,3Z"/><path class="cls-3" d="M102.73,35.18V2.9c0-3.86-6-3.87-6,0V35.18c0,3.86,6,3.87,6,0Z"/><path class="cls-3" d="M139.33,40.67A66.14,66.14,0,0,1,149.08,20c2.22-3.17-3-6.17-5.18-3a71.19,71.19,0,0,0-10.35,22.06c-1,3.73,4.75,5.32,5.78,1.6Z"/><path class="cls-3" d="M174.71,57.56a75.4,75.4,0,0,1,17.37-13.89c3.33-1.94.32-7.13-3-5.18a80.64,80.64,0,0,0-18.58,14.83c-2.63,2.82,1.61,7.07,4.24,4.24Z"/><path class="cls-3" d="M189.41,86h14.35c3.86,0,3.87-6,0-6H189.41c-3.86,0-3.86,6,0,6Z"/><path class="cls-3" d="M72,33.31A116.42,116.42,0,0,0,62.7,17c-2.17-3.17-7.37-.17-5.18,3a116.42,116.42,0,0,1,9.3,16.27c1.64,3.5,6.81.45,5.18-3Z"/><path class="cls-3" d="M37.42,47.26l-12-10.7c-2.88-2.56-7.13,1.67-4.24,4.24l12,10.71c2.88,2.56,7.14-1.67,4.25-4.25Z"/><path class="cls-3" d="M19.3,71.42,3.74,67.87C0,67-1.62,72.79,2.15,73.65L17.7,77.2c3.76.86,5.37-4.92,1.6-5.78Z"/></g></g></g></svg>