<svg xmlns="http://www.w3.org/2000/svg" viewBox="0 0 214.4 191.1"><defs><style>.cls-1{fill:#d9effb;}.cls-2{fill:#231f20;}</style></defs><title>Asset 11</title><g id="Layer_2" data-name="Layer 2"><g id="Icons"><g id="Dream"><polygon class="cls-1" points="3.7 24.24 4.06 155.86 136.65 86.5 3.7 24.24"/><path class="cls-2" d="M97,33.56c-27.6,4.94-45.68,32.5-39.1,59.74,6.74,27.91,38.42,45,65.28,33.67,13.74-5.78,24.19-18.34,25-33.48.18-3.14-3.24-4.27-5.64-3.24-8.29,3.57-17.77,7.35-26.92,5.13-6.87-1.67-12.47-6.69-15.94-12.72C91.41,68.27,97.1,51.23,106.49,39c1.93-2.53-1.31-6.66-4.24-5.51a9.66,9.66,0,0,1-6.23.64c-4.7-1-6.71,6.19-2,7.23a16.52,16.52,0,0,0,10.21-.64L100,35.17C88.4,50.35,83.19,72.08,94.71,88.85c4.63,6.73,11.51,12.14,19.59,13.91,11.13,2.43,21.94-1.7,32-6l-5.65-3.24c-.81,14.47-13.25,25.67-26.88,28.61a42.14,42.14,0,0,1-40.86-14.5C63.7,96.05,61.2,79.35,67,65.71,72.62,52.5,85,43.3,98.94,40.8c4.75-.85,2.74-8.08-2-7.24Z"/><path class="cls-2" d="M117.73,31.16a13.61,13.61,0,0,1-2.82,16.72l1.77,1.77c4.24-4,9.74-1,13.48,2a1.25,1.25,0,0,0,2-1.51c-2.43-4.59-.11-8.93,3.78-11.57,1.13-.76.46-2.71-1-2.28a12.26,12.26,0,0,1-14.32-5.78,1.25,1.25,0,0,0-2.16,1.26,14.78,14.78,0,0,0,17.14,6.93l-1-2.29c-5.11,3.46-7.74,9.22-4.68,15l2-1.51c-4.89-4-11.67-7.06-17-2-1.18,1.1.58,2.85,1.77,1.77a16.15,16.15,0,0,0,3.21-19.75c-.77-1.42-2.93-.16-2.16,1.26Z"/><path class="cls-2" d="M134.25,4.43a15.32,15.32,0,0,1-.78,11.13,1.26,1.26,0,0,0,2,1.51c3.6-3.14,7.46.52,9.69,3.26l1.77-1.77a6.11,6.11,0,0,1,2.58-9.93,1.26,1.26,0,0,0,0-2.41c-2.24-.55-3.57,1.52-5.91,1-3.2-.71-6.24-4.23-8.08-6.7-1-1.27-3.13,0-2.16,1.27a23.72,23.72,0,0,0,7.83,7.08,7.57,7.57,0,0,0,3.58,1c1.12,0,3.23-1.49,4.08-1.28V6.22c-6.11,2.33-7.88,9.1-3.69,14.11,1,1.24,2.77-.53,1.77-1.77-3.29-4-8.6-7.29-13.23-3.26l2,1.52a18.14,18.14,0,0,0,1-13,1.25,1.25,0,0,0-2.41.66Z"/><path class="cls-2" d="M114.4,19.06C107.65,8.62,95.2,3.39,82.94,5,71.08,6.56,59.77,16.77,64.09,29.59L68.7,25c-20.82-6.66-39.89,7.63-50.29,24.65-4.9,8-11.18,18.71-9.92,28.49,1,8,9.31,15.34,17.52,11.94l-2.89-6.85c-11,7.34-20.36,18.56-22.64,31.93-2.22,13,3.41,25.36,13.85,33.2,12,9,27.24,10.32,41.56,7.55A87.68,87.68,0,0,0,68,152.55c1.6-.55,3.37-1.52,5.07-1.71,2.86-.33,5.09,1.35,7.51,2.45a61.59,61.59,0,0,0,19.25,5.16A62.52,62.52,0,0,0,144.13,146L139,144.66c5.32,7.59,15.22,6.09,23.27,5,10.15-1.36,20.1-4.35,28-11.06,6.84-5.78,11.78-14.48,11.28-23.64-.46-8.54-5.17-16.72-13.08-20.32l1.34,5.13c4.45-5.89,11.57-9.06,15.9-15.09A19.65,19.65,0,0,0,207.49,65C200.35,48.7,181.56,47.07,166,48l3.24,5.64c4.31-5.69,3.58-13.71-.6-19.28-4.67-6.25-12.45-8.44-19.87-9.08-4.81-.41-4.78,7.09,0,7.5,8,.69,21.28,7.45,14,17.07-1.71,2.26.6,5.8,3.24,5.65,12.53-.71,30.32-.61,35.16,13.88,4.13,12.38-11.63,18.5-17.78,26.67a3.75,3.75,0,0,0,1.34,5.13c14.22,6.46,10.12,24.17.07,32.35-5.57,4.53-12.5,6.86-19.47,8.17-4.35.83-16.58,3.87-19.84-.77-1-1.49-3.42-2.67-5.13-1.35a56,56,0,0,1-44,10.91,52.33,52.33,0,0,1-12-3.62c-2.89-1.29-5.61-3.24-8.83-3.56-4.22-.43-8.18,1.66-12.09,2.91a76.61,76.61,0,0,1-13.87,3.18c-15.69,1.91-34.85-3.56-40.72-19.93C3.3,113.91,14.46,98,26.91,89.69c3.3-2.2,1.26-8.57-2.89-6.86-3.59,1.49-6.93-1-7.93-4.58s.4-7.62,1.73-11A86.27,86.27,0,0,1,28.54,48c8.79-11.79,23.22-20.53,38.17-15.75a3.78,3.78,0,0,0,4.61-4.61c-3.45-10.24,7.9-15.5,16.3-15.41,8,.09,15.89,3.83,20.3,10.66,2.61,4,9.11.28,6.48-3.79Z"/><path class="cls-2" d="M174,150.8c-8.09,2.46-15.16,9.15-14.42,18.2a13.62,13.62,0,0,0,15.61,12.73c8-1.13,15.56-8.24,16.56-16.37,1.19-9.6-7.35-14-15.45-15.58-3.93-.74-5.62,5.28-1.67,6,4.34.82,10.14,2,10.92,7.18.81,5.36-4.88,10.72-9.54,12.16-5.37,1.67-10.27-1.71-10.25-7.48,0-5.61,5-9.35,9.9-10.85,3.84-1.17,2.2-7.2-1.66-6Z"/><path class="cls-2" d="M205.06,181.7c2.12-.87,4.5,1.69,2,3-2.07,1-3.25-2-1.75-3a3.2,3.2,0,0,0,1.12-4.27,3.16,3.16,0,0,0-4.28-1.12A8.48,8.48,0,0,0,199.37,187a7.62,7.62,0,0,0,10.1,3.4,7.76,7.76,0,0,0,4.26-10.27c-1.7-3.71-6.43-6-10.33-4.43a3.22,3.22,0,0,0-2.18,3.84c.41,1.48,2.27,2.83,3.84,2.18Z"/></g></g></g></svg>