<svg xmlns="http://www.w3.org/2000/svg" viewBox="0 0 193.62 140.68"><defs><style>.cls-1{fill:#9fabd7;}.cls-2{fill:#231f20;}</style></defs><title>Asset 9</title><g id="Layer_2" data-name="Layer 2"><g id="Icons"><g id="Heels"><circle class="cls-1" cx="60.41" cy="77.51" r="60.41"/><g id="Heals"><path class="cls-2" d="M56.09,87.49c-8.5,14.34-11.3,30.68-13.72,46.93l9.82,1.33a74.77,74.77,0,0,0-4.87-31.27c-3.71-9.4-9.47-17.5-14.64-26.1-5-8.33-9.17-17.47-7.42-27.44,1.83-10.35,8.39-19.07,16-26C46,20.62,39,13.57,34.2,17.89,18.25,32.36,9.91,53,18.88,73.62c4.17,9.59,10.76,17.83,15.71,27a66,66,0,0,1,7.6,35.12c-.3,5.53,9,7,9.82,1.33,2.29-15.34,4.69-31,12.71-44.55C68,87,59.37,82,56.09,87.49Z"/><path class="cls-2" d="M60.27,96.17c23.88-4,39.84,24.48,57.66,35.32,20.77,12.64,49.71,10.48,72.14,4,3.37-1,4.29-4.41,3-7.34a91.4,91.4,0,0,0-28.73-36c-3.09-2.32-6.48-5-10.28-6.09s-7.25.26-10.93,1.08c-9.56,2.13-19.35.41-28.56-2.47A214.15,214.15,0,0,1,88.91,74.22c-7.46-3.44-15-7.2-21.19-12.76C55.47,50.35,51.05,33.78,47,18.35c-1.63-6.22-11.28-3.58-9.64,2.66,4,15.41,8.65,31.32,19.38,43.55,11,12.56,27.84,19,42.9,25.21,8.68,3.58,17.61,6.59,27,7.76a55.77,55.77,0,0,0,12.52.27c4.28-.42,9.78-3.06,13.75-1.44,6.79,2.77,13.29,10,18,15.37a83.64,83.64,0,0,1,13.5,21.48l3-7.35c-23.92,6.89-52.76,7.94-72.68-9C98,102.55,82.21,82.44,57.61,86.53c-6.34,1-3.65,10.69,2.66,9.64Z"/></g><path class="cls-2" d="M104.22,26.77C103.45,34.15,99.46,37.5,93,40.28c-1.29.55-.35,2.82,1,2.28,7.12-2.87,10.53,5.33,12.21,10.66a1.25,1.25,0,0,0,2.41-.67c-1.36-6.88,4.89-10.59,10.14-13.1a1.27,1.27,0,0,0-.3-2.29c-7.77-1.73-11.25-7.52-12.4-15-.25-1.59-2.66-.92-2.41.66,1.28,8.3,5.59,14.81,14.14,16.71l-.3-2.28c-6.47,3.1-12.86,7.93-11.28,15.93l2.41-.67c-2.09-6.62-6.74-15.84-15.28-12.4l1,2.29c7.67-3.28,11.6-7.2,12.49-15.67.16-1.6-2.34-1.59-2.5,0Z"/><path class="cls-2" d="M154.48,47.15c2.21,5.54-2.4,9.32-6.29,12.32-1.11.86.37,2.8,1.52,2,5-3.67,8,3.67,9,7.34.37,1.32,2.56,1.11,2.46-.33-.22-3.19-.16-5.72,2.48-8.05a48.84,48.84,0,0,1,5.26-3.6,1.25,1.25,0,0,0-1-2.28,9,9,0,0,1-11.22-6.92,1.25,1.25,0,0,0-2.41.67C156,54.92,162,58.4,168.64,56.93l-1-2.28c-2.45,1.64-5.7,3.19-7.5,5.6s-1.67,5.41-1.48,8.2l2.45-.33c-1.48-5.32-6.09-13.65-12.7-8.84l1.51,2c4.67-3.6,9.46-8.41,6.93-14.76-.58-1.47-3-.83-2.41.67Z"/><path class="cls-2" d="M142.91,6.44c1.24,2.83-.68,6.93-2.56,8.86a37.41,37.41,0,0,1-2.93,2.57c-.94.77.07,2.56,1.21,2.09,6.61-2.71,9.88,2.34,12.58,7.37l2.16-1.26c-3.08-4.64-1.13-10.12,4.18-11.68a1.26,1.26,0,0,0-.67-2.42c-7.42,1.44-11.6-4.83-13.19-11.08a1.25,1.25,0,0,0-2.41.66c2,7.74,7.58,14.52,16.27,12.84L156.88,12c-6.94,2-9.7,9.29-5.67,15.36a1.25,1.25,0,0,0,2.16-1.26c-3.4-6.33-7.9-11.6-15.4-8.52l1.22,2.09c4.6-3.81,8.57-8.32,5.88-14.46-.64-1.47-2.8-.2-2.16,1.26Z"/></g></g></g></svg>