<svg xmlns="http://www.w3.org/2000/svg" viewBox="0 0 135.69 180.92"><defs><style>.cls-1{fill:#d9effb;}.cls-2{fill:none;stroke:#231f20;stroke-miterlimit:10;stroke-width:5px;}.cls-3{fill:#231f20;}</style></defs><title>Asset 1</title><g id="Layer_2" data-name="Layer 2"><g id="Icons"><g id="Lipstick.svg"><polygon class="cls-1" points="39.89 2.78 35.93 178.42 135.69 178.42 39.89 2.78"/><path id="Container" class="cls-2" d="M69.24,178.42H2.5V92.83H69.24ZM57.36,67h-44V92.83h44Z"/><g id="Colour"><path class="cls-3" d="M24.58,66.57c0-10.11,0-20.22.11-30.33C24.82,25.4,27.56,17.1,35.34,9.35A12.52,12.52,0,0,1,37.62,7.2c.83-1,2-1.07,3.4-.14,1.92-.57,3-.08,3.26,1.49C45.59,10.47,45.7,14,46,16.27c.66,5.21.73,10.49.87,15.73q.42,16.19.1,32.38c-.06,3.22,4.94,3.22,5,0,.27-14.26.41-28.64-.49-42.88-.42-6.61-2.25-26-13.81-20.53-4.2,2-8,6.75-10.72,10.37A33.18,33.18,0,0,0,20.43,26c-2.2,13.11-.8,27.34-.85,40.6,0,3.22,5,3.22,5,0Z"/></g><path class="cls-3" d="M38.06,9.77a18.64,18.64,0,0,0-8.53,12c-.66,3.14,4.15,4.49,4.82,1.33a13.74,13.74,0,0,1,6.23-9c2.73-1.69.22-6-2.52-4.31Z"/></g></g></g></svg>