<svg xmlns="http://www.w3.org/2000/svg" viewBox="0 0 167.42 152.5"><defs><style>.cls-1{fill:#e6e7e8;}.cls-2,.cls-4{fill:none;stroke:#231f20;stroke-miterlimit:10;}.cls-2{stroke-width:4px;}.cls-3{fill:#231f20;}.cls-4{stroke-width:0.5px;}</style></defs><title>Asset 15</title><g id="Layer_2" data-name="Layer 2"><g id="Icons"><text></text></g><g id="Layer_7" data-name="Layer 7"><circle class="cls-1" cx="94.95" cy="73.82" r="72.47"/><circle class="cls-2" cx="76.25" cy="76.25" r="74.25"/><path class="cls-3" d="M101.81,75c-.14-2.67-.31-5.87-.28-8.26h-.09C100.79,69,100,71.35,99,74l-3.37,9.27H93.78l-3.09-9.1c-.9-2.7-1.67-5.17-2.21-7.44h-.06c0,2.39-.2,5.59-.37,8.46l-.51,8.19H85.19l1.33-19.11h3.15l3.26,9.24c.8,2.36,1.45,4.46,1.93,6.44H95c.48-1.93,1.16-4,2-6.44l3.41-9.24h3.14l1.2,19.11H102.3Z"/><path class="cls-3" d="M131.35,80.29a2.83,2.83,0,0,1-2.89,3.08,2.76,2.76,0,0,1-2.78-3,2.83,2.83,0,0,1,2.87-3.08A2.75,2.75,0,0,1,131.35,80.29Zm-4.61.06c0,1.27.74,2.23,1.77,2.23s1.76-.94,1.76-2.25c0-1-.49-2.23-1.74-2.23S126.74,79.25,126.74,80.35Z"/><path class="cls-3" d="M117.82,80.29a2.83,2.83,0,0,1-2.89,3.08,2.76,2.76,0,0,1-2.78-3A2.83,2.83,0,0,1,115,77.31,2.75,2.75,0,0,1,117.82,80.29Zm-4.61.06c0,1.27.74,2.23,1.77,2.23s1.76-.94,1.76-2.25c0-1-.49-2.23-1.74-2.23S113.21,79.25,113.21,80.35Z"/><path class="cls-3" d="M139.55,79c0-.6,0-1.09-.05-1.57h.94l.06,1h0a2.14,2.14,0,0,1,1.92-1.09c.8,0,2.05.48,2.05,2.47v3.46h-1.06V79.9c0-.94-.34-1.72-1.34-1.72a1.5,1.5,0,0,0-1.41,1.08,1.44,1.44,0,0,0-.08.49v3.49h-1Z"/><path class="cls-3" d="M91.46,22.55c0,2.79-1.69,4.26-3.75,4.26s-3.64-1.65-3.64-4.1,1.6-4.25,3.76-4.25S91.46,20.15,91.46,22.55Zm-6.27.14c0,1.72.93,3.27,2.58,3.27s2.59-1.52,2.59-3.36c0-1.61-.84-3.28-2.58-3.28S85.19,20.91,85.19,22.69Z"/><path class="cls-3" d="M100.53,22.37c0-.6,0-1.09,0-1.57h.94l.06,1h0a2.14,2.14,0,0,1,1.92-1.09c.81,0,2,.48,2,2.47v3.47h-1V23.26c0-.94-.35-1.72-1.35-1.72a1.51,1.51,0,0,0-1.41,1.08,1.55,1.55,0,0,0-.07.5v3.49h-1.06Z"/><path class="cls-3" d="M86.53,41.59H84.07V40.7h6v.89H87.59v7.2H86.53Z"/><path class="cls-3" d="M103,40.49h1v3.62h0a2,2,0,0,1,.75-.74,2.22,2.22,0,0,1,1.08-.3c.78,0,2,.48,2,2.48V49h-1.06V45.67c0-.94-.34-1.73-1.34-1.73A1.51,1.51,0,0,0,104.11,45a1.25,1.25,0,0,0-.08.5V49h-1Z"/><path class="cls-3" d="M123.4,46.94a1.86,1.86,0,0,0,2,2,3.8,3.8,0,0,0,1.61-.3l.18.75a4.71,4.71,0,0,1-1.93.36,2.69,2.69,0,0,1-2.86-2.92c0-1.75,1-3.13,2.72-3.13a2.45,2.45,0,0,1,2.4,2.73,4.49,4.49,0,0,1,0,.49Zm3.09-.75A1.5,1.5,0,0,0,125,44.47a1.75,1.75,0,0,0-1.62,1.72Z"/><line class="cls-4" x1="74.53" y1="83.37" x2="73.83" y2="2.04"/></g></g></svg>