<svg xmlns="http://www.w3.org/2000/svg" viewBox="0 0 141.73 203.67"><defs><style>.cls-1{fill:#e58b87;}</style></defs><title>Asset 5</title><g id="Layer_2" data-name="Layer 2"><g id="Icons"><g id="Love_portion" data-name="Love portion"><polygon class="cls-1" points="79.32 67.97 15.33 67.97 79.32 200.01 79.32 67.97"/><g id="Bottle"><path d="M71.16,71.72H87.48c4.83,0,4.84-7.5,0-7.5H71.16c-4.83,0-4.83,7.5,0,7.5Z"/><path d="M66.79,68.68v55.23c0,4.82,7.5,4.83,7.5,0V68.68c0-4.82-7.5-4.83-7.5,0Z"/><path d="M68.85,120.6C48,125.31,34.68,147.79,37,168.43c2.69,23.77,25,37.85,47.77,34.83,4.71-.62,4.77-8.13,0-7.5-9.75,1.3-19.81,0-27.82-6.14a32.65,32.65,0,0,1-12.63-23c-1.33-16.93,9.41-35,26.5-38.83,4.71-1.06,2.71-8.29-2-7.23Z"/><path d="M91.23,123.91V68.68c0-4.82-7.5-4.83-7.5,0v55.23c0,4.82,7.5,4.83,7.5,0Z"/><path d="M73.24,203.26c22.76,3,45.06-11.06,47.77-34.83,2.35-20.63-11-43.13-31.83-47.83-4.7-1.06-6.71,6.17-2,7.23,17.09,3.86,27.83,21.9,26.5,38.83A32.81,32.81,0,0,1,101.82,189c-8.06,6.6-18.55,8.06-28.58,6.72-4.77-.63-4.73,6.88,0,7.5Z"/><path d="M40.93,162.42c24.77,3.24,56.74,11.42,75.09-11.17,3-3.71-2.26-9.05-5.31-5.3-16.73,20.6-47.29,11.91-69.78,9-4.77-.62-4.73,6.88,0,7.5Z"/></g><g id="Hearts"><path d="M48.11,84.51c.44-.88,1.85-3.74,3.28-1.86.47.63-.43,2.06-.72,2.54A19.33,19.33,0,0,1,47.14,90L49,89.52c-1.55-.27-4.73-1.57-5.83-2.77-.37-.4-1.06-2.53-.47-2.89.79-.49,2.46,1.11,2.9,1.59,1.64,1.78,4.29-.88,2.65-2.65a7.57,7.57,0,0,0-6.06-2.67c-2.29.24-3.11,2.42-3.42,4.43A5,5,0,0,0,41.24,90c1.74,1.14,5,3.35,7.23,3.23S52.2,89.56,53.26,88c1.3-1.87,2.38-4.06,1.74-6.38a4.54,4.54,0,0,0-4.9-3.36c-2.51.24-4.18,2.2-5.23,4.32s2.16,4.06,3.24,1.89Z"/><path d="M130,58.3c-2.34-2.54-6-4.75-9.61-4.26-3.26.44-4.23,3.89-4.64,6.72-.51,3.54.77,6,3.74,7.9a49.17,49.17,0,0,0,7.11,3.74c1.36.6,3.31,1.9,4.82,1.71,3.06-.38,5.62-6.11,7.17-8.35,2-2.93,3.93-6.39,2.9-10.07a6.55,6.55,0,0,0-7.22-4.84c-3.88.43-6.31,3.6-7.93,6.85-1.07,2.16,2.16,4.06,3.24,1.9,1-1.94,5.64-9.15,8.3-2.92.74,1.74-.56,4.12-1.4,5.52-1.67,2.81-3.89,6.65-6.39,8.71l1.83-.49c-2.92-.51-8.33-2.84-10.54-5-1-1-3.43-6.71-.11-7.66,2.09-.6,4.85,1.85,6.08,3.19,1.63,1.78,4.28-.87,2.65-2.65Z"/><path d="M21.13,44.25C18.44,37.39,4.58,33.82.92,41.63-.88,45.48,0,51.15,3.29,54c1.73,1.48,3.89,1.95,6,2.74a24.94,24.94,0,0,1,5.11,2.63c1.59,1.09,3,3.12,4.58,4.08,4.2,2.47,6.42-3.25,8.71-6.22,3.22-4.15,8-8.63,7-14.38a8,8,0,0,0-7.36-6.65c-5.28-.22-8.12,4.92-8.94,9.45C17.9,48,21.51,49,22,46.6a10.13,10.13,0,0,1,1.47-4.38c4.09-5,7.87,0,7.19,3.73C30,49.23,27,52,25,54.54l-2.4,3.1-1.2,1.55c-1.56,1.33-1.77,1.8-.65,1.44.91.23-2.54-3.1-3.23-3.62-3.55-2.69-9.31-3.48-12-6.75s-1.81-9,3.23-9c3,0,7.54.79,8.81,4,.87,2.23,4.5,1.26,3.62-1Z"/></g><g id="Sparkle"><path d="M112,85.74v7.91c0,3.21,5,3.22,5,0V85.74c0-3.22-5-3.23-5,0Z"/><path d="M111.32,104.85V118c0,3.22,5,3.23,5,0V104.85c0-3.22-5-3.22-5,0Z"/><path d="M120.41,102.08H125c3.22,0,3.22-5,0-5h-4.61c-3.22,0-3.23,5,0,5Z"/><path d="M106.56,97.08h-5.27c-3.22,0-3.22,5,0,5h5.27c3.22,0,3.23-5,0-5Z"/></g><g id="Smoke"><path d="M85.23,63.88c-1.3-10.36,15.55-11.26,22.33-14.26,5-2.18,14.23-6.14,14.7-12.61.42-5.87-7.27-8.79-11.82-10-8.14-2.1-16.91-1.17-25.19-.59-7.73.53-59.86,5.35-55.77-8.86C31.93,9.08,45.8,6.08,53.1,4.67c10-1.92,20.17-2,30.28-2.17a1.25,1.25,0,0,0,0-2.5C68.81.2,53.13.18,39.49,6c-6,2.58-20.8,14.67-9.07,19.78,13.74,6,30.37,4.88,44.92,3.87,8-.55,16-1.39,24-1.34,6.27,0,28.28,3.83,17.15,13.25-7.18,6.08-16.22,7.44-24.74,10.5-5.16,1.86-9.74,5.87-9,11.8.2,1.57,2.7,1.59,2.5,0Z"/></g></g></g></g></svg>