<svg xmlns="http://www.w3.org/2000/svg" viewBox="0 0 172.47 202.05"><defs><style>.cls-1{fill:#70ad97;}.cls-2{fill:#231f20;}</style></defs><title>Asset 2</title><g id="Layer_2" data-name="Layer 2"><g id="Icons"><g id="Spa-princess.svg"><rect class="cls-1" x="2.92" y="26.21" width="65.87" height="172.9"/><g id="Tower"><path class="cls-2" d="M23.52,113.47c-2.79,2.6-6.24,5.67-9.88,7-2.26.86-2.21,1.2-3.49-1.06a26.05,26.05,0,0,1-1.56-5.23C6.66,106.94,4.28,97.55,6.9,90.17c2.44-6.9,9.85-12.5,15.22-17.14A132.53,132.53,0,0,1,40.74,59.54c11.57-6.9,32.4-17.51,44.39-5.79C99,67.33,72.54,81.6,63.2,87.45c-3.26,2-.25,7.24,3,5.18a155.8,155.8,0,0,0,21-15.13c4.72-4.2,8.3-9.69,7.73-16.25-1.33-15.33-18.21-20-31.11-17.73-16,2.79-31,12.93-43.31,23.06C14.65,71.39,8.33,76.68,4,83-.53,89.5-.46,97,.59,104.64a94.3,94.3,0,0,0,3,13.81c.83,2.8,1.68,7.38,4.66,8.87,2.81,1.4,5.95-.34,8.46-1.62a48.42,48.42,0,0,0,11.09-8c2.83-2.64-1.42-6.88-4.24-4.24Z"/><path class="cls-2" d="M38.32,73.83a198,198,0,0,0-24.38,17.4c-3,2.47,1.29,6.7,4.24,4.24A188.28,188.28,0,0,1,41.35,79c3.3-2,.29-7.18-3-5.18Z"/><path class="cls-2" d="M57.33,65.6A14.81,14.81,0,0,0,51.13,68a3.08,3.08,0,0,0-1.07,4.11,3,3,0,0,0,4.1,1.07,10.44,10.44,0,0,1,4.77-1.78c1.6-.22,2.48-2.28,2.09-3.69-.47-1.74-2.08-2.32-3.69-2.1Z"/><path class="cls-2" d="M77.6,87.93c13.39,4.14,24.09,11.88,33.81,21.79,3.36,3.43,7.17,6.5,12.26,5.51,4.68-.9,8.19-4.7,9.82-9,4.31-11.43-2.8-22.72-10.15-31a83.42,83.42,0,0,0-30-21.39c-3.55-1.49-5.1,4.31-1.59,5.79a75.8,75.8,0,0,1,24.54,16.8c6.7,6.82,16.34,18.17,11.27,28.45-1.15,2.34-3.11,4.46-5.88,4.44-3,0-5.17-3-7.1-5a89.55,89.55,0,0,0-10.46-9.39A79.84,79.84,0,0,0,79.19,82.14c-3.7-1.14-5.28,4.65-1.59,5.79Z"/></g><g id="Lips"><path class="cls-2" d="M48.29,173.05a18.83,18.83,0,0,0,6.34-3.37c1.07-.83,9-7.72,9.57-3.15.41,3.26,4.76,4.21,5.9.8,2-6.13,6.53.07,9.39,1.69a18.69,18.69,0,0,0,9.29,2.27L88,165.4a40.33,40.33,0,0,0-8.2,4.24c-3,2.1-5.53,5.09-8.77,6.83-7.26,3.91-14.92-4.72-20.48-8.8-3.12-2.28-6.12,2.92-3,5.18,5.69,4.18,12.58,11.61,20.22,11,8.56-.74,14.15-9.52,21.86-12.62,3-1.19,2.82-5.87-.8-5.89-4.53,0-7-2-10.24-4.81A9.21,9.21,0,0,0,73,157.77c-4.68-.23-7.39,4.09-8.68,8l5.89.79a8,8,0,0,0-7.54-7.38c-6.7-.56-10.19,6.38-16,8.12-3.69,1.11-2.12,6.9,1.59,5.78Z"/></g><path class="cls-2" d="M80,44.4l2.48-22.65-5.12,2.12c3.27,3.31,6.4,7,9.93,10,1.92,1.63,3.4,2.44,6,2.19,4-.38,8.34-2.16,12.2-3.32,4.81-1.46,9.56-3.05,14.29-4.73L116,25.15c-.47,4.51-.82,9-1,13.57-.09,2.47-.66,5.75,1.14,7.83,2,2.27,6,2.6,8.64,3.42,4.23,1.31,8.42,2.76,12.57,4.28l-.72-5.48L112.58,66.22c-3.1,2.24-.11,7.45,3,5.18L139.7,54a3,3,0,0,0-.71-5.48c-3-1.09-6-2.15-9-3.13-1.79-.59-7.8-1.38-9.07-2.77-.74-.82.14-5.36.21-6.77.18-3.56.48-7.11.85-10.65a3,3,0,0,0-3.8-2.9Q108,25.9,97.61,28.81c-4.21,1.17-5.44,1.48-8.56-1.66L81.6,19.63c-2-2-4.85-.34-5.12,2.12L74,44.4c-.42,3.83,5.59,3.8,6,0Z"/><path class="cls-2" d="M83,12.31A32.38,32.38,0,0,0,79.28,1.48c-1.86-3.38-7-.36-5.18,3a27.78,27.78,0,0,1,3.11,9.4c.24,1.61,2.26,2.47,3.69,2.09A3.06,3.06,0,0,0,83,12.31Z"/><path class="cls-2" d="M127.43,22.2,140.29,8.26c2.62-2.83-1.61-7.09-4.24-4.24L123.19,18c-2.61,2.83,1.62,7.09,4.24,4.24Z"/><path class="cls-2" d="M146.66,49.78q11.46.26,22.92-.28c3.85-.18,3.87-6.18,0-6q-11.46.53-22.92.28c-3.86-.08-3.86,5.92,0,6Z"/><g id="Cucumber"><path class="cls-2" d="M47.3,120.64c.09.68,0-.21,0-.28,0-.27,0-.54,0-.81a14.71,14.71,0,0,1,.06-1.63,3,3,0,0,0-3-3,3.08,3.08,0,0,0-3,3,19.54,19.54,0,0,0,.21,4.32,3,3,0,0,0,3.69,2.09,3.09,3.09,0,0,0,2.1-3.69Z"/><path class="cls-2" d="M49.16,132.43h3.9a3,3,0,0,0,0-6h-3.9a3,3,0,0,0,0,6Z"/><path class="cls-2" d="M47,136.25l-.62-3.7a3,3,0,0,0-3.69-2.1,3.09,3.09,0,0,0-2.09,3.69l.62,3.7a3,3,0,0,0,3.69,2.1A3.08,3.08,0,0,0,47,136.25Z"/><path class="cls-2" d="M33,132.12l4.47-.51a3.07,3.07,0,0,0,3-3c-.06-1.47-1.33-3.19-3-3l-4.47.51a3.06,3.06,0,0,0-3,3c.06,1.47,1.33,3.19,3,3Z"/><path class="cls-2" d="M95.86,122.8v-3.52a3,3,0,0,0-6,0v3.52a3,3,0,0,0,6,0Z"/><path class="cls-2" d="M98.72,131.46h4.1a3,3,0,0,0,0-6h-4.1a3,3,0,1,0,0,6Z"/><path class="cls-2" d="M89.88,133.72a14.79,14.79,0,0,0,.26,3.93,3,3,0,0,0,3.69,2.09,3.07,3.07,0,0,0,2.1-3.69c0-.12-.05-.23-.06-.35s0-.16,0,.2a2.52,2.52,0,0,1,0-.73,11.76,11.76,0,0,1,0-1.45,3,3,0,0,0-3-3,3.08,3.08,0,0,0-3,3Z"/><path class="cls-2" d="M81.94,131.3l3.9-.25a3,3,0,0,0,0-6l-3.9.25a3,3,0,0,0,0,6Z"/><path class="cls-2" d="M65.68,128.05c-.43-12.09-9.82-22.24-22.24-22.24a22.24,22.24,0,0,0,0,44.47c12.43,0,21.81-10.11,22.24-22.23.13-3.87-5.87-3.86-6,0-.31,8.84-7.16,16.23-16.24,16.23a16.23,16.23,0,0,1-.68-32.44c9.33-.42,16.6,7.11,16.92,16.21C59.81,131.9,65.81,131.91,65.68,128.05Z"/><path class="cls-2" d="M115.07,128.05c-.43-12.09-9.82-22.24-22.24-22.24a22.24,22.24,0,0,0,0,44.47c12.42,0,21.81-10.11,22.24-22.23.13-3.87-5.87-3.86-6,0-.32,8.84-7.16,16.23-16.24,16.23a16.23,16.23,0,0,1-.69-32.44c9.34-.42,16.61,7.11,16.93,16.21C109.2,131.9,115.2,131.91,115.07,128.05Z"/></g><g id="Face"><path class="cls-2" d="M120.82,113.82c-2,9.72-1.57,19.11-1.92,29-.32,9.16-3.91,17.06-9.71,24.07-5,6-11,11.32-16.94,16.39-7.13,6.07-14.83,11.48-24.26,13-3.8.61-2.19,6.39,1.6,5.78,9-1.44,16.63-6.23,23.64-11.83s14.32-12,20.2-19.08c5.3-6.37,9.5-13.66,10.88-21.92.87-5.25.54-10.54.52-15.84a86.32,86.32,0,0,1,1.78-17.92c.78-3.77-5-5.38-5.79-1.59Z"/><path class="cls-2" d="M10.89,126.61c2.31,9.77.48,19.57,2.3,29.29,1.46,7.74,6.14,14.4,11.59,19.9a144.32,144.32,0,0,0,19.13,15.63c7.24,5.13,15.11,9.33,24,10.57,3.78.54,5.41-5.25,1.6-5.78C54.15,194.06,39.66,182.29,29,171.56c-5.82-5.87-10-12.59-10.4-21-.44-8.75.1-16.89-1.95-25.53-.88-3.75-6.67-2.16-5.78,1.6Z"/></g></g></g></g></svg>