<svg xmlns="http://www.w3.org/2000/svg" viewBox="0 0 205.79 214.97"><defs><style>.cls-1{fill:#9fabd7;}.cls-2{fill:#231f20;}</style></defs><title>Asset 4</title><g id="Layer_2" data-name="Layer 2"><g id="Icons"><g id="Unicorn"><g id="Unicorn-2" data-name="Unicorn"><circle class="cls-1" cx="72.99" cy="81.71" r="72.99"/><path class="cls-2" d="M35.09,79.58c4.17,24.26,1.68,48.89-.87,73.19-.33,3.2,4.67,3.17,5,0,2.6-24.81,5-49.76.69-74.52-.54-3.17-5.36-1.83-4.82,1.33Z"/><path class="cls-2" d="M86.43,133.49q5.35,8.34,10.35,16.89c1.62,2.78,5.94.26,4.31-2.52q-5-8.56-10.34-16.89c-1.73-2.71-6.06-.2-4.32,2.52Z"/><path class="cls-2" d="M99,152.27q20.41,4.78,40.37,11.17c3.08,1,4.39-3.85,1.33-4.83q-19.95-6.37-40.37-11.16c-3.13-.73-4.46,4.09-1.33,4.82Z"/><path class="cls-2" d="M138.08,162.46c1.92,3.34,4.8,6,7.23,9,2.88,3.5,5.54,7.16,8.06,10.93,1.78,2.66,6.11.16,4.31-2.53-2.23-3.33-4.57-6.57-7.05-9.72-2.67-3.38-6.08-6.47-8.23-10.2-1.61-2.79-5.93-.27-4.32,2.52Z"/><path class="cls-2" d="M157.85,184.25q6.08-2.94,12-6.12c3.28-1.75,8.57-3.57,11-6.41,2-2.27,1.3-5.31,1.25-8.18l-.29-14.73c-.06-3.21-5.06-3.22-5,0l.21,10.8c.09,4.42.82,7.64-3,10.48-5.45,4.08-12.67,6.88-18.78,9.84-2.9,1.4-.37,5.72,2.52,4.32Z"/><path class="cls-2" d="M181.81,147.36A365.15,365.15,0,0,0,150.74,77c-1.61-2.79-5.93-.27-4.32,2.53A358.57,358.57,0,0,1,177,148.69c1,3.05,5.81,1.75,4.82-1.33Z"/><path class="cls-2" d="M150.12,78.77a891.39,891.39,0,0,1,55-73.4c2.05-2.45-1.47-6-3.54-3.53A904.3,904.3,0,0,0,145.8,76.25c-1.8,2.67,2.53,5.18,4.32,2.52Z"/><path class="cls-2" d="M132.21,58.59,203.84,4.8c2.54-1.91,0-6.25-2.53-4.31L129.69,54.27c-2.55,1.91-.06,6.25,2.52,4.32Z"/><path class="cls-2" d="M131,54.72l-11.27-6c-2.84-1.52-5.36,2.8-2.52,4.32l11.27,6c2.84,1.52,5.36-2.8,2.52-4.32Z"/><path class="cls-2" d="M120.13,49.11Q116.58,31.43,112,14c-.82-3.11-5.64-1.79-4.82,1.33q4.56,17.46,8.13,35.14c.64,3.16,5.46,1.82,4.82-1.33Z"/><path class="cls-2" d="M107,13.47A354.54,354.54,0,0,0,88.63,52.06c-1.21,3,3.63,4.27,4.82,1.32A344.9,344.9,0,0,1,111.27,16c1.56-2.82-2.76-5.34-4.31-2.52Z"/><path class="cls-2" d="M89.93,50.7Q63.6,62.55,38,75.78c-2.86,1.48-.34,5.79,2.52,4.32Q66.13,66.85,92.45,55c2.93-1.31.39-5.62-2.52-4.31Z"/><path class="cls-2" d="M41.66,105.27A229.66,229.66,0,0,1,79,80.38q4.74-2.52,9.58-4.82c2-.94,4-1.55,5.09-3.56s.93-5.14,1.11-7.43l1-11.53c.26-3.2-4.74-3.19-5,0l-.8,9.76a32.67,32.67,0,0,1-.36,4.43c-.77,3.32-1.71,3.15-4.32,4.4q-8.46,4.05-16.57,8.79a237.06,237.06,0,0,0-30.54,21.31c-2.5,2,1.06,5.55,3.53,3.54Z"/><path class="cls-2" d="M94.82,54.58,114.76,36.1c2.37-2.2-1.18-5.73-3.53-3.54l-20,18.49c-2.36,2.19,1.18,5.72,3.54,3.53Z"/><path class="cls-2" d="M111.19,33.85A297.69,297.69,0,0,1,101.83,74c-1,3.09,3.88,4.4,4.82,1.33A297.69,297.69,0,0,0,116,35.18c.51-3.15-4.31-4.51-4.82-1.33Z"/><path class="cls-2" d="M106.2,76.41Q117.69,68.25,129.74,61c2.75-1.66.24-6-2.53-4.32q-12,7.29-23.53,15.44c-2.6,1.85-.11,6.19,2.52,4.32Z"/><path class="cls-2" d="M129.16,59.84c6.39,4.51,11.48,11.94,16.12,18.14,1.9,2.55,6.24.06,4.31-2.52-5.2-7-10.74-14.89-17.91-19.94-2.64-1.85-5.14,2.48-2.52,4.32Z"/><path class="cls-2" d="M90.55,74.19a99.49,99.49,0,0,1,40.74,19.75c2.48,2,6-1.5,3.54-3.53a105,105,0,0,0-43-21c-3.13-.71-4.47,4.11-1.33,4.83Z"/><path class="cls-2" d="M134.67,93.9q7.05-6.87,14.25-13.58c2.36-2.2-1.19-5.73-3.54-3.54q-7.2,6.72-14.24,13.59c-2.31,2.25,1.23,5.78,3.53,3.53Z"/><path class="cls-2" d="M131.81,95.42A619.3,619.3,0,0,1,164,154c1.4,2.9,5.71.37,4.32-2.52a623,623,0,0,0-32.21-58.6c-1.69-2.72-6-.22-4.32,2.53Z"/><path class="cls-2" d="M168.55,154.16c1-1.43,2.82-2,4.41-2.49,2.16-.7,4.34-1.36,6.52-2,3.06-1,1.75-5.79-1.33-4.83-4.84,1.52-10.82,2.43-13.92,6.84-1.86,2.64,2.48,5.14,4.32,2.52Z"/><path class="cls-2" d="M164.38,154.91a71.68,71.68,0,0,1,12.15,12c2,2.52,5.52-1,3.53-3.53a71.61,71.61,0,0,0-12.14-12c-2.51-1.95-6.08,1.56-3.54,3.53Z"/><path class="cls-2" d="M163.86,151.18c-2.3,4.52-5.31,8.42-6.86,13.34s-2.07,10.24-2.6,15.4c-.33,3.2,4.67,3.17,5,0a69.15,69.15,0,0,1,2.42-14.08c1.44-4.49,4.25-8,6.36-12.14,1.46-2.86-2.85-5.39-4.32-2.52Z"/><path class="cls-2" d="M141.8,162.45A133.46,133.46,0,0,1,165,153.51c3.09-.88,1.77-5.7-1.33-4.82a141.25,141.25,0,0,0-24.34,9.44c-2.88,1.44-.35,5.75,2.52,4.32Z"/><path class="cls-2" d="M101.45,150.89l18-10.83c3.69-2.22,9.93-4.47,12-8.57,2.28-4.54,2.18-11.24,2.8-16.25.87-6.94,1.44-13.91,1.79-20.89.15-3.22-4.85-3.21-5,0-.27,5.4-.67,10.78-1.24,16.16-.35,3.25-.76,6.5-1.23,9.73-.36,2.46-.38,5.8-1.33,8.07-1.69,4.05-9.93,7.21-13.57,9.4l-14.7,8.86c-2.75,1.66-.24,6,2.52,4.32Z"/><path class="cls-2" d="M128.13,132.22c2.13,4.06,6.15,7.15,9.35,10.34l12.09,12.08c2.28,2.27,5.81-1.26,3.53-3.54l-10.87-10.86c-3.23-3.23-7.66-6.49-9.78-10.55-1.5-2.85-5.82-.32-4.32,2.53Z"/><path class="cls-2" d="M96.42,140.89A410.55,410.55,0,0,1,133,94.38c2.16-2.38-1.37-5.93-3.54-3.54a420.72,420.72,0,0,0-37.36,47.52c-1.81,2.68,2.52,5.18,4.31,2.53Z"/><path class="cls-2" d="M88.91,72.2a283.32,283.32,0,0,1,14.76,31.1c1.19,3,6,1.66,4.83-1.33A293.77,293.77,0,0,0,93.22,69.68c-1.55-2.82-5.87-.3-4.31,2.52Z"/><path class="cls-2" d="M40,154.54a467,467,0,0,1,67.11-49.17c2.75-1.66.24-6-2.52-4.32A473.92,473.92,0,0,0,36.5,151c-2.42,2.13,1.13,5.65,3.54,3.53Z"/><path class="cls-2" d="M89.89,132.56c6.28-8.83,12.75-17.52,19.14-26.27,1.9-2.6-2.43-5.1-4.31-2.52-6.39,8.75-12.86,17.44-19.15,26.27-1.87,2.62,2.46,5.12,4.32,2.52Z"/><path class="cls-2" d="M104.65,104.42q10.66,12.64,21.68,25c2.14,2.41,5.67-1.14,3.53-3.53q-11-12.34-21.67-25c-2.08-2.46-5.6,1.09-3.54,3.54Z"/><path class="cls-2" d="M33.73,154.3l10.21,58.42c.55,3.16,5.37,1.82,4.82-1.33L38.55,153c-.55-3.17-5.37-1.82-4.82,1.33Z"/><path class="cls-2" d="M49.11,213.24q8.78-26.16,18.46-52c1.13-3-3.7-4.32-4.82-1.33q-9.69,25.85-18.46,52c-1,3.06,3.8,4.37,4.82,1.33Z"/><path class="cls-2" d="M67.17,161.4q9.61-13.44,20.1-26.21c2-2.47-1.49-6-3.54-3.54q-10.89,13.28-20.88,27.23C61,161.5,65.31,164,67.17,161.4Z"/></g></g></g></g></svg>