<svg xmlns="http://www.w3.org/2000/svg" viewBox="0 0 185.09 187.35"><defs><style>.cls-1{fill:#ffd797;}.cls-2{fill:#231f20;}</style></defs><title>Asset 12</title><g id="Layer_2" data-name="Layer 2"><g id="Icons"><g id="Magic_wand" data-name="Magic wand"><circle class="cls-1" cx="121.1" cy="55.39" r="50.07"/><g id="Wand"><path class="cls-2" d="M114.37,49a742.76,742.76,0,0,0-67.14,58.17q-15.7,15.39-30.45,31.7C9,147.42-.68,157.19,0,169.73c.63,11.14,9.41,19.09,20.68,17.39,12.78-1.93,20.92-14.34,27.55-24.26,16.45-24.62,33.23-48.35,53.51-70.05C107.44,86.75,113.42,81,119.12,75c4.66-4.93,9.87-10.43,12.71-16.67,2.32-5.08,2-11.58-3.69-14.1C122.19,41.63,116.8,45.7,113,50c-3.2,3.6,2.09,8.92,5.3,5.3,1.13-1.27,5.8-7,7.5-2.9.72,1.72-2.44,5.69-3.25,6.86A104.21,104.21,0,0,1,110.8,72.79c-8.22,8.36-16.39,16.71-24.11,25.54A472.12,472.12,0,0,0,45.74,153c-5.81,9-12.51,22-23.14,25.91-5.22,1.94-11.29.92-13.87-4.45-2.44-5.06-1-10.92,1.56-15.59,5.25-9.56,14.31-17.65,21.73-25.53q11.92-12.68,24.46-24.76a727.37,727.37,0,0,1,61.68-53.17c3.77-2.9,0-9.41-3.79-6.47Z"/></g><g id="Highlight"><path class="cls-2" d="M18.59,172a17.13,17.13,0,0,1,6.91-18.48c4-2.69.23-9.19-3.78-6.47A24.87,24.87,0,0,0,11.36,174c1.19,4.67,8.43,2.69,7.23-2Z"/></g><g id="Sparkles"><path class="cls-2" d="M54.36,32.81,77.78,54.4c2.36,2.17,5.91-1.35,3.53-3.54L57.9,29.28c-2.36-2.18-5.91,1.35-3.54,3.53Z"/><path class="cls-2" d="M55.93,57.16,86.7,27.94c2.34-2.22-1.2-5.75-3.54-3.54L52.39,53.62c-2.34,2.22,1.2,5.76,3.54,3.54Z"/><path class="cls-2" d="M111.3,11.76c1.72-1.26,3.46-2.47,5.28-3.59,1.28-.79,4.55-3.28,5.92-2.95s3.37,3.55,4.18,4.67A41.26,41.26,0,0,1,130,15.56l.9-3.42-16.15,7.05,3.42.9L113,9.06c-1.37-2.91-5.68-.37-4.32,2.52l5.21,11c.63,1.32,2.28,1.4,3.42.9l16.15-7.06c1.29-.56,1.45-2.33.9-3.42-2-4-5.82-11.37-10.46-12.81s-11.6,4.66-15.1,7.22c-2.57,1.88-.07,6.22,2.53,4.32Z"/><path class="cls-2" d="M119.83,99.21c-5.66,2.33-9,8.6-5.55,14.28a11.89,11.89,0,0,0,15.45,4.12,11.35,11.35,0,0,0,4.6-14.61c-2.71-5.34-9.21-7-14.45-4.62-2.92,1.35-.38,5.66,2.52,4.32,6.22-2.85,10.88,5.81,5.77,10a6.83,6.83,0,0,1-7.82.12,4.88,4.88,0,0,1,.81-8.75c2.94-1.21,1.65-6.05-1.33-4.83Z"/><path class="cls-2" d="M162.75,27.49c1.38,8.3-5,14.29-11.35,18.35a2.5,2.5,0,0,0,2.52,4.32c9.22-5,13.45,8.61,14.91,14.89l4.82-1.33c-2.39-7.57,2.33-15.28,9.66-17.79a2.51,2.51,0,0,0-.66-4.91,16.47,16.47,0,0,1-13.86-11c-1.06-3-5.9-1.72-4.82,1.33A21.71,21.71,0,0,0,182.65,46L182,41.1c-9.81,3.36-16.38,13.7-13.15,23.95a2.5,2.5,0,0,0,4.82-1.33c-1.4-6-3.13-12.69-8.35-16.59a12.62,12.62,0,0,0-13.9-1.29l2.52,4.32c8.52-5.46,15.44-13.25,13.65-24-.53-3.17-5.34-1.82-4.82,1.33Z"/></g></g></g></g></svg>