<svg xmlns="http://www.w3.org/2000/svg" viewBox="0 0 204.17 159.13"><defs><style>.cls-1{fill:#e58b87;}.cls-2{fill:#231f20;}</style></defs><title>Asset 13</title><g id="Layer_2" data-name="Layer 2"><g id="Icons"><g id="World"><circle class="cls-1" cx="152.97" cy="87.95" r="51.19"/><g id="Continent"><path class="cls-2" d="M36.3,23.42c2.77,7.17,10.09,11.4,17.59,8.38,3.87-1.56,4.93-4.59,7.58-7.34C64.8,21,73.9,27.92,77.41,29.77l-1.34-5.13c-.91,1.44-3.22,1.59-4.69,2.09A20.06,20.06,0,0,0,59.25,37.89c-1.72,4-1.25,7.68-1.61,11.88C57,57,50.62,56.49,45,56.61,38,56.75,28.84,59,27.72,67.23a8.92,8.92,0,0,0,12.52,9.29l-5.13-1.34.55.82-.38-2.88c-.25,1.7-5.13,2.24-6.3,2.21-2.77-.07-4.54-1.06-5.35-3.83-.93-3.15,0-6.78.22-10,.36-6-.93-12-6.37-15.32-4.14-2.5-7.92,4-3.78,6.48,4.81,2.9,2.09,11.21,2.13,15.72,0,4.89,1.54,10,6,12.63,5.77,3.47,26.29.22,19.79-9.66a3.88,3.88,0,0,0-5.13-1.34q-2-.73-.6-3.29l1.42-1.17c1.51-1.21,4-1.33,5.79-1.45,3.31-.2,6.62.13,9.9-.45,5.46-1,10.19-4.09,11.65-9.67,1.73-6.56-1-13,5.15-18,4.13-3.36,9.71-2.73,12.77-7.6A3.78,3.78,0,0,0,81.2,23.3c-5.44-2.88-14-9.82-20.67-7.59-2.89,1-4.27,3.23-5.91,5.56-2.87,4.07-8.78,6.15-11.09.16-1.72-4.46-9-2.53-7.23,2Z"/><path class="cls-2" d="M54.85,113.18c-2.3,16.59,9.79,28,23.07,35.59,2.3,1.31,5.9-.31,5.64-3.24-.76-8.79-1.84-18.55,2.28-26.73A19.25,19.25,0,0,1,92.69,111c3.11-1.92,7.3-1.57,10-4.22,3.87-3.81,1.74-10.14-2.31-12.89-3.44-2.34-7.77-1.77-11.33-3.66-2.9-1.55-4.88-4.45-7.07-6.82-5.12-5.55-11.13-7.87-18.74-7.56-6.18.25-12.67,1.26-16.61,6.5C42.32,88,42.46,95.42,45.07,101.8s7.18,13.51,14.78,13.39c4.82-.07,4.84-7.57,0-7.5-6.2.1-9.85-12-9-16.72,1.25-6.92,8-7.75,14-7.7,6.32,0,9.63,3,13.61,7.47,3.17,3.52,6.44,6.37,11.13,7.55,1.23.32,8,1.14,7,3-.56,1-4.57,1.65-5.89,2.28a25,25,0,0,0-9.94,9c-6.39,9.73-5.66,21.87-4.71,32.94l5.65-3.24C72,136.73,60.31,128,62.08,115.18c.66-4.72-6.57-6.76-7.23-2Z"/></g><g id="surround"><path class="cls-2" d="M123.51,10.24C99.38-2.59,70.19-3.58,45.56,8.47,22.52,19.75,2.89,42.94.29,69.05c-2.64,26.58,12.85,56.33,33.41,72.61C53.18,157.09,79.94,163,104,156.55c26.67-7.17,48.18-28.86,55.88-55.24,1.36-4.64-5.88-6.62-7.23-2a74,74,0,0,1-42.11,47.11c-21,8.7-45.53,6.18-64.83-5.49-20.4-12.35-35.68-37-37.94-60.75-2.33-24.42,13-47.42,32.93-60.36,23.67-15.37,54.15-16.33,79-3.11,4.26,2.26,8-4.21,3.79-6.48Z"/></g><g id="Heart"><path class="cls-2" d="M134.65,34.45c3.83-10,12.65-19.51,24-19.77s20.87,8.22,19.75,20.08c-1.17,12.42-11.14,21.35-19.88,29.12S141.19,79.7,136.7,90.94L143,89.29c-12.83-11.69-32.54-16.22-41.83-31.62-4.38-7.25-5.3-16.64,1.5-22.77,7.34-6.62,18.42-4.37,23.5,3.79,2.54,4.09,9,.33,6.47-3.79C127.08,26,116.21,21.13,106,24.47A23.2,23.2,0,0,0,90.08,47.25C91.22,73.58,121.61,80,137.66,94.59c2.24,2,5.21,1,6.27-1.65,6.08-15.21,21.66-23.31,31.79-35.41,8.3-9.93,14-24.26,7.6-36.7C178,10.52,165.44,5.69,154.37,7.6c-13.05,2.25-22.42,13-26.95,24.86-1.72,4.51,5.53,6.46,7.23,2Z"/><path class="cls-2" d="M169.41,42.66c1.47-6.61,5-14.38-.65-20.13-4.65-4.74-13.91-4.33-18.44.26-3.4,3.44,1.9,8.74,5.3,5.3,2.26-2.28,7.76-2,8.66,1.48s-1.36,7.74-2.1,11.1c-1,4.7,6.18,6.71,7.23,2Z"/></g></g></g></g></svg>